<svg width="1400" height="350" viewBox="0 0 1400 350" fill="none" xmlns="http://www.w3.org/2000/svg">
<rect width="1400" height="350" fill="#191B2D"/>
<g clip-path="url(#clip0_45_2)">
<mask id="mask0_45_2" style="mask-type:luminance" maskUnits="userSpaceOnUse" x="346" y="68" width="707" height="213">
<path d="M1053 68H346V281H1053V68Z" fill="white"/>
</mask>
<g mask="url(#mask0_45_2)">
<path d="M529.677 260.227L529.298 260.109C527.215 259.445 525.951 258.954 525.951 257.938C525.951 256.98 526.329 255.88 529.264 255.88C530.939 255.926 532.576 256.384 534.032 257.213L534.825 257.577L536.658 253.282L536.104 253.097C533.941 252.285 531.659 251.836 529.35 251.769C523.971 251.769 520.885 254.078 520.885 258.068C520.885 262.539 524.782 263.781 527.622 264.687L527.91 264.777C530.274 265.547 531.726 266.084 531.726 267.337C531.726 268.46 531.477 269.647 528.496 269.647C526.657 269.607 524.849 269.167 523.197 268.356L522.23 267.972L520.473 272.169L520.981 272.374C523.36 273.264 525.876 273.732 528.415 273.757C532.456 273.757 536.785 272.057 536.785 267.285C536.785 262.438 532.848 261.223 529.685 260.218" fill="white"/>
<path d="M548.298 244.105H543.062V248.995H548.298V244.105Z" fill="white"/>
<path d="M548.168 252.332H543.192V273.203H548.168V252.332Z" fill="white"/>
<path d="M563.416 260.227L563.037 260.109C560.954 259.442 559.687 258.954 559.687 257.938C559.687 256.98 560.065 255.88 563 255.88C564.675 255.926 566.312 256.384 567.768 257.213L568.562 257.577L570.394 253.282L569.84 253.097C567.678 252.285 565.397 251.837 563.089 251.769C557.71 251.769 554.624 254.078 554.624 258.068C554.624 262.539 558.521 263.781 561.361 264.687L561.632 264.777C563.999 265.547 565.447 266.084 565.447 267.337C565.447 268.46 565.199 269.647 562.221 269.647C560.382 269.607 558.573 269.167 556.922 268.356L555.955 267.972L554.197 272.169L554.705 272.374C557.084 273.264 559.6 273.731 562.14 273.757C566.18 273.757 570.51 272.057 570.51 267.285C570.51 262.438 566.573 261.223 563.41 260.218" fill="white"/>
<path d="M582.686 267.857V256.399H587.275V252.289H582.686V247.133H577.71V252.286H574.507V256.396H577.71V267.767C577.71 272.071 580.81 275.406 586.002 276.693L586.467 276.808L588.199 272.256L587.572 272.132C584.279 271.474 582.666 270.074 582.666 267.854" fill="white"/>
<path d="M601.29 251.812C594.413 251.812 591.962 257.586 591.962 262.964C591.962 269.502 595.714 273.725 601.51 273.725C604.211 273.759 606.887 273.211 609.357 272.118L609.828 271.901L608.151 267.86L607.634 268.119C605.867 269.114 603.888 269.673 601.862 269.75C599.114 269.75 597.59 268.131 597.212 264.808H610.757V264.269C610.757 258.111 609.631 251.818 601.296 251.818M597.157 260.828C597.466 257.721 599.007 255.885 601.339 255.885C604.191 255.885 605.643 257.459 605.882 260.828H597.157Z" fill="white"/>
<path d="M639.142 251.769C637.96 251.789 636.799 252.085 635.75 252.631C634.702 253.178 633.795 253.961 633.101 254.918C632.458 253.86 631.53 253.003 630.424 252.446C629.318 251.89 628.077 251.655 626.844 251.769C625.855 251.849 624.893 252.133 624.019 252.603C623.145 253.073 622.377 253.719 621.765 254.5L621.187 252.332H616.673L616.725 252.909C616.774 253.463 616.852 254.015 616.933 254.572C617.091 255.51 617.18 256.459 617.199 257.41V273.194H622.131V259.338C622.772 257.866 624.411 255.874 626.172 255.874C628.111 255.874 629.312 256.581 629.312 260.097V273.197H634.244V259.589C634.526 258.612 635.089 257.739 635.863 257.078C636.636 256.418 637.587 255.999 638.596 255.874C640.796 255.874 641.65 257.057 641.65 260.097V273.197H646.582V260.011C646.582 254.526 644.071 251.763 639.116 251.763" fill="white"/>
<path d="M670.849 270.207C670.65 269.014 670.525 267.809 670.477 266.601V258.677C670.477 254.315 667.677 251.815 662.794 251.815C659.849 251.824 656.929 252.348 654.164 253.362L653.636 253.559L655.417 257.805L655.928 257.563C658.016 256.493 660.322 255.918 662.667 255.883C664.687 255.883 665.504 256.844 665.504 259.197V259.912H664.269C656.574 259.912 652.99 262.314 652.99 267.47C652.99 271.445 655.902 273.725 660.976 273.725C662.901 273.653 664.731 272.868 666.11 271.523V271.543C666.237 271.918 666.448 272.536 666.491 272.698V273.197H671.227L671.161 272.597C671.068 271.777 670.956 270.972 670.846 270.201M665.542 263.668V267.692C665.09 268.316 664.492 268.821 663.801 269.162C663.11 269.503 662.346 269.67 661.576 269.649C660.54 269.649 658.13 269.418 658.13 267.288C658.13 265.158 659.284 263.671 664.863 263.671L665.542 263.668Z" fill="white"/>
<path d="M686.074 260.227L685.695 260.109C683.612 259.442 682.345 258.954 682.345 257.938C682.345 256.98 682.723 255.88 685.658 255.88C687.333 255.926 688.97 256.384 690.426 257.213L691.219 257.577L693.052 253.282L692.498 253.097C690.336 252.285 688.055 251.837 685.747 251.769C680.368 251.769 677.282 254.078 677.282 258.068C677.282 262.539 681.179 263.781 684.019 264.687L684.307 264.777C686.671 265.547 688.123 266.084 688.123 267.337C688.123 268.46 687.874 269.647 684.893 269.647C683.054 269.607 681.246 269.167 679.594 268.356L678.627 267.972L676.87 272.169L677.378 272.374C679.757 273.264 682.273 273.732 684.812 273.757C688.853 273.757 693.182 272.057 693.182 267.285C693.182 262.438 689.245 261.223 686.082 260.218" fill="white"/>
<path d="M721.564 251.812C714.687 251.812 712.236 257.586 712.236 262.964C712.236 269.502 715.988 273.725 721.781 273.725C724.482 273.759 727.158 273.21 729.628 272.118L730.099 271.901L728.425 267.86L727.905 268.119C726.138 269.114 724.159 269.673 722.133 269.75C719.385 269.75 717.861 268.131 717.483 264.808H731.028V264.269C731.028 258.111 729.902 251.818 721.567 251.818M717.429 260.828C717.74 257.721 719.279 255.885 721.611 255.885C724.462 255.885 725.914 257.459 726.153 260.828H717.429Z" fill="white"/>
<path d="M745.323 260.227L744.945 260.109C742.861 259.445 741.597 258.954 741.597 257.938C741.597 256.98 741.975 255.88 744.91 255.88C746.585 255.926 748.223 256.384 749.678 257.213L750.472 257.577L752.304 253.282L751.75 253.097C749.589 252.285 747.308 251.837 745 251.769C739.62 251.769 736.535 254.078 736.535 258.068C736.535 262.539 740.431 263.781 743.271 264.687L743.542 264.777C745.909 265.547 747.358 266.084 747.358 267.337C747.358 268.46 747.109 269.647 744.131 269.647C742.292 269.607 740.483 269.167 738.832 268.356L737.865 267.972L736.107 272.169L736.615 272.374C738.995 273.264 741.51 273.732 744.05 273.757C748.091 273.757 752.42 272.057 752.42 267.285C752.42 262.438 748.483 261.223 745.32 260.218" fill="white"/>
<path d="M768.253 251.769C767.291 251.822 766.353 252.09 765.508 252.553C764.662 253.015 763.931 253.661 763.367 254.442L762.772 252.332H758.241L758.325 252.944C758.633 254.897 758.79 256.87 758.795 258.847V280.997H763.728V271.936C765.053 273.099 766.75 273.748 768.513 273.766C774.863 273.766 777.108 268.14 777.108 262.874C777.108 255.816 773.881 251.769 768.253 251.769ZM772.043 262.791C772.043 267.346 770.666 269.658 767.947 269.658C767.072 269.68 766.208 269.455 765.453 269.01C764.699 268.564 764.085 267.915 763.682 267.138V259.344C764.397 257.652 765.754 255.88 767.471 255.88C769.731 255.88 772.04 256.7 772.04 262.791" fill="white"/>
<path d="M791.819 251.812C784.941 251.812 782.488 257.586 782.488 262.964C782.488 269.502 786.24 273.725 792.032 273.725C794.733 273.759 797.41 273.211 799.88 272.118L800.35 271.901L798.676 267.86L798.16 268.119C796.392 269.114 794.413 269.673 792.387 269.75C789.64 269.75 788.116 268.131 787.738 264.808H801.282V264.269C801.282 258.111 800.157 251.818 791.824 251.818M787.686 260.828C787.994 257.721 789.536 255.885 791.868 255.885C794.716 255.885 796.171 257.459 796.41 260.828H787.686Z" fill="white"/>
<path d="M821.711 268.157C820.117 268.987 818.377 269.496 816.588 269.655C813.413 269.655 811.802 267.389 811.802 262.92C811.802 257.987 813.245 255.88 816.631 255.88C818.364 256.058 820.046 256.568 821.586 257.381L822.103 257.638L823.881 253.391L823.367 253.189C821.212 252.416 818.959 251.951 816.674 251.809C810.267 251.809 806.737 255.756 806.737 262.918C806.737 269.681 810.403 273.723 816.55 273.723C818.94 273.634 821.3 273.163 823.54 272.325L823.999 272.103L822.236 267.888L821.711 268.157Z" fill="white"/>
<path d="M834.975 244.105H829.74V248.995H834.975V244.105Z" fill="white"/>
<path d="M834.845 252.332H829.87V273.203H834.845V252.332Z" fill="white"/>
<path d="M859.124 270.215C858.923 269.02 858.797 267.812 858.748 266.601V258.677C858.748 254.315 855.949 251.815 851.065 251.815C848.121 251.824 845.2 252.348 842.436 253.362L841.905 253.559L843.686 257.805L844.196 257.563C846.284 256.493 848.59 255.918 850.935 255.883C852.956 255.883 853.773 256.844 853.773 259.197V259.912H852.537C844.843 259.912 841.258 262.314 841.258 267.47C841.258 271.445 844.17 273.725 849.247 273.725C851.172 273.653 853.002 272.868 854.382 271.523V271.543C854.509 271.918 854.719 272.536 854.762 272.698V273.197H859.502L859.432 272.597C859.34 271.78 859.224 270.974 859.118 270.207M853.813 263.674V267.698C853.361 268.322 852.764 268.827 852.073 269.168C851.381 269.509 850.618 269.676 849.847 269.655C848.811 269.655 846.401 269.424 846.401 267.294C846.401 265.163 847.556 263.677 853.138 263.677L853.813 263.674Z" fill="white"/>
<path d="M871.528 252.332H866.552V273.203H871.528V252.332Z" fill="white"/>
<path d="M871.658 244.105H866.422V248.995H871.658V244.105Z" fill="white"/>
<path d="M886.775 260.227L886.397 260.109C884.314 259.445 883.047 258.954 883.047 257.938C883.047 256.98 883.425 255.88 886.36 255.88C888.035 255.926 889.672 256.384 891.128 257.213L891.921 257.577L893.754 253.282L893.2 253.097C891.037 252.285 888.755 251.836 886.446 251.769C881.067 251.769 877.981 254.078 877.981 258.068C877.981 262.539 881.878 263.781 884.718 264.687L884.989 264.777C887.355 265.547 888.807 266.084 888.807 267.337C888.807 268.46 888.559 269.647 885.581 269.647C883.74 269.607 881.931 269.167 880.279 268.356L879.312 267.972L877.554 272.169L878.062 272.374C880.441 273.264 882.957 273.732 885.497 273.757C889.537 273.757 893.867 272.057 893.867 267.285C893.867 262.438 889.93 261.223 886.767 260.218" fill="white"/>
<path d="M562.567 209.337C562.594 208.201 562.39 207.071 561.968 206.016C561.545 204.961 560.913 204.002 560.109 203.198C559.306 202.395 558.348 201.762 557.293 201.34C556.238 200.917 555.108 200.713 553.972 200.74C552.207 200.742 550.459 200.396 548.827 199.721C547.196 199.046 545.714 198.056 544.466 196.808C543.218 195.559 542.228 194.077 541.553 192.445C540.879 190.814 540.532 189.065 540.534 187.3V91.4431C540.534 90.3142 540.312 89.1963 539.88 88.1533C539.448 87.1103 538.815 86.1626 538.017 85.3643C537.219 84.5661 536.271 83.9328 535.228 83.5008C534.186 83.0688 533.068 82.8464 531.939 82.8464C530.811 82.8464 529.693 83.0688 528.65 83.5008C527.607 83.9328 526.66 84.5661 525.862 85.3643C525.064 86.1626 524.431 87.1103 523.999 88.1533C523.567 89.1963 523.344 90.3142 523.344 91.4431V187.3C523.33 191.396 524.178 195.449 525.832 199.196C528.996 206.473 534.8 212.28 542.075 215.445C545.823 217.099 549.876 217.947 553.972 217.934C555.109 217.961 556.239 217.757 557.294 217.335C558.349 216.912 559.308 216.28 560.111 215.476C560.915 214.671 561.547 213.713 561.969 212.657C562.391 211.601 562.595 210.474 562.567 209.337Z" fill="#FEFEFF"/>
<path d="M593.408 119.889C595.875 119.905 598.27 119.065 600.186 117.511C602.102 115.957 603.419 113.787 603.913 111.37C604.407 108.952 604.047 106.439 602.894 104.258C601.741 102.077 599.867 100.364 597.591 99.4114C595.316 98.4587 592.781 98.3255 590.418 99.0344C588.056 99.7434 586.013 101.251 584.638 103.299C583.263 105.347 582.641 107.809 582.879 110.264C583.117 112.72 584.199 115.017 585.942 116.763C586.913 117.759 588.074 118.549 589.357 119.086C590.64 119.623 592.018 119.896 593.408 119.889Z" fill="#FEFEFF"/>
<path d="M593.408 128.679C592.272 128.653 591.142 128.857 590.087 129.28C589.032 129.702 588.073 130.335 587.27 131.139C586.466 131.943 585.834 132.901 585.411 133.957C584.988 135.012 584.784 136.142 584.81 137.279V208.457C584.81 210.737 585.716 212.923 587.328 214.535C588.94 216.148 591.126 217.053 593.405 217.053C595.685 217.053 597.871 216.148 599.483 214.535C601.095 212.923 602 210.737 602 208.457V137.279C602.028 136.142 601.824 135.012 601.402 133.956C600.979 132.901 600.347 131.942 599.544 131.138C598.74 130.334 597.782 129.702 596.727 129.279C595.672 128.856 594.542 128.652 593.405 128.679" fill="#FEFEFF"/>
<path d="M722.958 68.0029C721.822 67.976 720.692 68.18 719.637 68.6025C718.582 69.025 717.624 69.6572 716.82 70.4608C716.016 71.2645 715.384 72.2229 714.961 73.278C714.538 74.3332 714.334 75.4631 714.36 76.5996V128.099C709.922 124.061 704.826 120.813 699.292 118.495C692.945 115.856 686.14 114.497 679.266 114.497C672.393 114.497 665.588 115.856 659.241 118.495C646.515 123.973 636.371 134.12 630.893 146.848C628.252 153.218 626.893 160.046 626.893 166.941C626.893 173.837 628.252 180.665 630.893 187.034C633.581 193.355 637.472 199.094 642.348 203.93C647.179 208.812 652.939 212.678 659.287 215.298C672.106 220.458 686.424 220.458 699.243 215.298C704.803 213.038 709.92 209.813 714.357 205.772V210.578C714.357 212.858 715.263 215.045 716.875 216.657C718.487 218.269 720.673 219.175 722.952 219.175C725.232 219.175 727.418 218.269 729.03 216.657C730.642 215.045 731.547 212.858 731.547 210.578V76.5967C731.574 75.4611 731.37 74.332 730.947 73.2776C730.525 72.2232 729.893 71.2654 729.091 70.4621C728.288 69.6588 727.33 69.0267 726.276 68.604C725.222 68.1813 724.093 67.9768 722.958 68.0029ZM711.647 180.565C708.133 189.028 701.409 195.753 692.948 199.268C684.201 202.886 674.377 202.886 665.631 199.268C661.445 197.475 657.628 194.919 654.375 191.731C651.135 188.546 648.561 184.747 646.804 180.556C645.01 176.241 644.087 171.613 644.087 166.94C644.087 162.266 645.01 157.638 646.804 153.323C648.584 149.096 651.166 145.254 654.407 142.01C657.632 138.783 661.442 136.199 665.634 134.398C672.073 131.667 679.183 130.93 686.045 132.282C692.907 133.633 699.206 137.012 704.129 141.981C707.326 145.259 709.879 149.108 711.656 153.329C713.448 157.645 714.371 162.273 714.371 166.947C714.371 171.621 713.448 176.249 711.656 180.565" fill="#FEFEFF"/>
<path d="M815.268 210.578C815.296 209.442 815.092 208.311 814.669 207.256C814.247 206.2 813.615 205.242 812.811 204.438C812.007 203.634 811.048 203.002 809.993 202.58C808.937 202.157 807.807 201.954 806.671 201.982C802.831 201.989 799.017 201.365 795.38 200.134C791.853 198.953 788.55 197.188 785.607 194.912C782.672 192.628 780.095 189.917 777.962 186.87C777.052 185.573 776.226 184.218 775.492 182.814H834.874C838.002 182.842 841.103 182.225 843.983 181.001C846.705 179.832 849.164 178.127 851.212 175.987C853.247 173.848 854.869 171.353 855.998 168.626C857.185 165.792 857.795 162.749 857.79 159.677V156.7C857.79 155.433 857.569 154.174 857.138 152.982C855.702 147.487 853.342 142.276 850.159 137.573C846.987 132.878 843.057 128.743 838.531 125.336C834.032 121.972 829.055 119.301 823.765 117.412C818.277 115.462 812.494 114.476 806.671 114.496C799.845 114.485 793.082 115.798 786.756 118.362C773.909 123.667 763.687 133.849 758.331 146.678C753.17 159.545 753.17 173.907 758.331 186.774C760.953 193.122 764.817 198.883 769.696 203.717C774.566 208.618 780.352 212.514 786.724 215.183C793.046 217.829 799.832 219.187 806.685 219.178C807.868 219.198 809.042 218.964 810.127 218.493C811.213 218.022 812.186 217.325 812.98 216.447C814.463 214.853 815.288 212.756 815.288 210.578M774.36 153.109C777.875 144.648 784.599 137.924 793.06 134.409C797.368 132.594 801.999 131.669 806.673 131.69C810.571 131.673 814.442 132.328 818.117 133.624C821.745 134.915 825.161 136.739 828.253 139.034C831.274 141.287 833.891 144.035 835.994 147.163C838.118 150.325 839.72 153.809 840.739 157.48C840.886 158.057 840.992 158.51 841.044 158.808V159.674C841.067 160.456 840.919 161.233 840.611 161.952C840.303 162.671 839.842 163.314 839.261 163.836C838.69 164.417 838.007 164.875 837.253 165.182C836.499 165.489 835.691 165.638 834.877 165.62H771.67C771.781 161.318 772.696 157.075 774.369 153.109" fill="#FEFEFF"/>
<path d="M934.241 114.497C927.342 114.465 920.508 115.826 914.148 118.498C908.57 120.866 903.442 124.178 898.99 128.289V123.093C898.99 120.813 898.084 118.627 896.472 117.014C894.86 115.402 892.674 114.497 890.395 114.497C888.115 114.497 885.929 115.402 884.317 117.014C882.705 118.627 881.8 120.813 881.8 123.093V212.391C881.8 214.671 882.705 216.858 884.317 218.47C885.929 220.082 888.115 220.988 890.395 220.988C892.674 220.988 894.86 220.082 896.472 218.47C898.084 216.858 898.99 214.671 898.99 212.391V166.945C898.968 162.27 899.891 157.638 901.706 153.329C905.301 144.821 912.05 138.036 920.538 134.398C924.872 132.568 929.536 131.646 934.241 131.69C935.37 131.69 936.487 131.467 937.53 131.035C938.573 130.603 939.52 129.97 940.318 129.172C941.117 128.374 941.75 127.426 942.182 126.383C942.614 125.34 942.836 124.222 942.836 123.093C942.836 121.964 942.614 120.846 942.182 119.803C941.75 118.76 941.117 117.813 940.318 117.014C939.52 116.216 938.573 115.583 937.53 115.151C936.487 114.719 935.37 114.497 934.241 114.497Z" fill="#FEFEFF"/>
<path d="M1052.35 152.982C1050.91 147.487 1048.55 142.276 1045.37 137.573C1042.2 132.878 1038.27 128.743 1033.74 125.336C1029.24 121.972 1024.27 119.301 1018.98 117.412C1013.49 115.463 1007.7 114.476 1001.88 114.496C995.055 114.485 988.292 115.798 981.966 118.362C969.115 123.665 958.89 133.848 953.532 146.678C948.372 159.544 948.372 173.905 953.532 186.771C956.154 193.12 960.019 198.88 964.898 203.714C969.767 208.615 975.553 212.511 981.926 215.18C988.247 217.826 995.033 219.184 1001.89 219.175C1003.07 219.195 1004.24 218.961 1005.33 218.49C1006.41 218.019 1007.39 217.322 1008.18 216.444C1009.66 214.85 1010.49 212.753 1010.49 210.575C1010.52 209.439 1010.31 208.309 1009.89 207.254C1009.47 206.199 1008.84 205.24 1008.03 204.437C1007.23 203.633 1006.27 203.001 1005.21 202.579C1004.16 202.157 1003.03 201.954 1001.89 201.982C998.053 201.989 994.239 201.365 990.602 200.134C987.072 198.954 983.765 197.188 980.82 194.912C977.885 192.628 975.308 189.917 973.175 186.87C972.264 185.573 971.439 184.218 970.704 182.814H1030.09C1033.22 182.842 1036.32 182.225 1039.2 181.001C1041.92 179.832 1044.38 178.127 1046.43 175.987C1048.46 173.848 1050.08 171.353 1051.21 168.625C1052.4 165.792 1053.01 162.749 1053.01 159.677V156.7C1053.01 155.433 1052.79 154.174 1052.35 152.982M1036.25 159.677C1036.28 160.458 1036.13 161.236 1035.82 161.955C1035.51 162.674 1035.05 163.317 1034.47 163.839C1033.9 164.42 1033.22 164.878 1032.46 165.185C1031.71 165.492 1030.9 165.641 1030.09 165.623H966.88C966.992 161.321 967.907 157.078 969.579 153.112C973.094 144.651 979.818 137.926 988.278 134.412C992.586 132.597 997.217 131.672 1001.89 131.693C1005.79 131.676 1009.66 132.331 1013.33 133.627C1016.96 134.919 1020.38 136.742 1023.47 139.037C1026.49 141.29 1029.11 144.038 1031.21 147.166C1033.33 150.328 1034.94 153.812 1035.95 157.483C1036.1 158.06 1036.21 158.513 1036.26 158.811L1036.25 159.677Z" fill="#FEFEFF"/>
<path d="M419.192 225.875C417.992 225.868 416.804 225.62 415.701 225.147C414.597 224.674 413.599 223.986 412.765 223.121C410.34 220.586 408.995 217.207 409.013 213.699C409.012 211.336 409.773 209.036 411.182 207.14C412.59 205.243 414.572 203.851 416.834 203.169C419.095 202.487 421.517 202.552 423.738 203.354C425.96 204.156 427.865 205.653 429.17 207.622C428.438 204.758 426.917 202.157 424.78 200.114C422.644 198.072 419.977 196.67 417.083 196.068C414.189 195.467 411.185 195.689 408.411 196.711C405.637 197.732 403.206 199.512 401.394 201.847C399.581 204.182 398.46 206.979 398.158 209.92C397.856 212.861 398.386 215.827 399.686 218.482C400.986 221.137 403.005 223.374 405.513 224.938C408.021 226.502 410.918 227.331 413.873 227.33C417.403 227.33 420.327 225.887 419.184 225.887" fill="#9100F0"/>
<path d="M395.541 221.99L401.483 200.374C402.99 205.417 405.726 210.007 409.446 213.73C413.167 217.453 417.754 220.192 422.795 221.702C427.837 223.212 433.174 223.445 438.328 222.379C443.482 221.314 448.29 218.984 452.32 215.598C450.867 221.674 447.578 227.155 442.899 231.293C438.22 235.432 432.379 238.027 426.173 238.726C419.966 239.424 413.695 238.192 408.213 235.198C402.732 232.203 398.307 227.591 395.541 221.99Z" fill="#FEFEFF"/>
<path d="M442.957 110.7C437.937 114.885 431.925 117.708 425.5 118.897C419.074 120.086 412.451 119.603 406.266 117.492C400.081 115.382 394.543 111.716 390.184 106.847C385.825 101.978 382.792 96.0686 381.375 89.688C378.237 98.8056 378.671 108.774 382.591 117.584C386.511 126.394 393.624 133.39 402.497 137.161C411.37 140.932 421.342 141.199 430.404 137.907C439.465 134.615 446.942 128.009 451.326 119.421C451.326 119.421 443.895 109.915 442.957 110.7Z" fill="#9100F0"/>
<path d="M390.943 85.6061C392.571 85.0721 394.576 91.7289 394.787 92.6844C395.426 95.5607 395.332 98.5512 394.516 101.382C393.711 104.165 391.768 106.33 390.764 109.017C389.04 113.656 388.908 118.736 390.388 123.457C391.868 128.179 394.875 132.275 398.937 135.099L398.822 135.477H350.208C349.606 135.478 349.012 135.35 348.464 135.101C347.917 134.852 347.429 134.489 347.034 134.036C346.639 133.582 346.346 133.049 346.174 132.473C346.003 131.896 345.957 131.29 346.04 130.694C347.42 120.706 354.592 97.5254 390.943 85.6033" fill="#3C0672"/>
<path d="M357.842 134.418C357.193 132.948 356.762 131.393 356.56 129.799C356.531 129.626 356.504 129.453 356.479 129.279C356.424 128.906 356.375 128.533 356.332 128.159L356.306 127.926C356.081 125.87 356.065 123.798 356.257 121.739C356.498 119.175 357.046 116.649 357.891 114.216C358.93 111.249 360.349 108.429 362.11 105.825C367.294 98.0735 374.645 92.0204 383.245 88.4207C385.575 87.4796 387.915 86.5645 390.241 85.6119L391.087 85.2655C391.247 85.1998 391.424 85.1927 391.589 85.2455C391.753 85.2984 391.893 85.4077 391.985 85.5542C393.48 87.9733 399.171 98.429 392.164 107.516C385.641 115.98 378.186 124.412 377.47 125.218C377.433 125.26 377.39 125.298 377.343 125.33L362.162 134.981C361.983 135.135 361.813 135.299 361.651 135.471H359.054C358.888 135.502 358.717 135.493 358.555 135.445C358.414 135.362 358.299 135.241 358.223 135.096C358.09 134.879 357.968 134.655 357.856 134.426" fill="#00B3E4"/>
<path d="M433.13 219.983C433.029 220.091 432.896 220.164 432.751 220.191C432.606 220.218 432.456 220.198 432.323 220.133C432.19 220.069 432.082 219.963 432.013 219.832C431.945 219.701 431.921 219.552 431.943 219.406V219.386C432.262 216.511 431.764 213.605 430.508 211C429.252 208.395 427.288 206.196 424.841 204.656C422.394 203.115 419.562 202.295 416.671 202.29C413.779 202.284 410.944 203.092 408.491 204.623C409.288 202.614 410.516 200.805 412.088 199.322C413.659 197.839 415.537 196.718 417.588 196.039C419.639 195.36 421.814 195.138 423.96 195.39C426.106 195.641 428.171 196.36 430.01 197.496C432.109 198.754 433.851 200.529 435.071 202.651C436.29 204.773 436.947 207.172 436.977 209.62C437.064 213.435 435.687 217.138 433.13 219.969" fill="#00B3E4"/>
<path d="M415.709 191.494C419.874 191.468 423.963 192.621 427.501 194.82C431.04 197.02 433.883 200.176 435.704 203.924C431.647 201.347 426.861 200.164 422.071 200.554C417.281 200.944 412.749 202.887 409.163 206.086C405.577 209.286 403.133 213.569 402.201 218.284C401.269 223 401.9 227.89 403.999 232.214C399.979 229.653 396.895 225.861 395.208 221.402C393.521 216.944 393.321 212.059 394.639 207.477C395.956 202.896 398.72 198.864 402.518 195.983C406.315 193.102 410.942 191.528 415.709 191.494Z" fill="#3C0672"/>
<path d="M422.237 156.357H392.582C392.136 156.358 391.698 156.231 391.322 155.99C390.946 155.749 390.647 155.405 390.461 154.999C390.275 154.593 390.21 154.142 390.274 153.7C390.337 153.258 390.526 152.843 390.819 152.506C400.186 141.715 405.445 127.963 405.671 113.674C405.678 113.295 405.777 112.923 405.961 112.592C406.144 112.26 406.406 111.978 406.723 111.771C407.041 111.564 407.404 111.437 407.781 111.403C408.159 111.368 408.539 111.426 408.889 111.572C415.599 114.346 429.888 123.939 424.535 154.42C424.44 154.964 424.156 155.456 423.734 155.811C423.312 156.166 422.777 156.36 422.226 156.36" fill="#00B3E4"/>
<path d="M454.897 180.112C454.899 167.864 451.424 155.867 444.875 145.518C438.326 135.169 428.974 126.892 417.905 121.653C426.381 120.261 435.058 120.73 443.335 123.027C451.612 125.324 459.29 129.395 465.837 134.956C472.384 140.517 477.643 147.436 481.25 155.233C484.857 163.029 486.725 171.518 486.725 180.109C486.725 188.7 484.857 197.188 481.25 204.985C477.643 212.782 472.384 219.701 465.837 225.262C459.29 230.823 451.612 234.893 443.335 237.191C435.058 239.488 426.381 239.957 417.905 238.565C428.974 233.325 438.327 225.048 444.876 214.699C451.425 204.349 454.9 192.352 454.897 180.103" fill="#00B3E4"/>
<path d="M470.848 194.02C470.848 184.795 469.032 175.661 465.502 167.138C461.973 158.616 456.8 150.872 450.278 144.349C443.757 137.826 436.014 132.652 427.494 129.122C418.973 125.591 409.84 123.774 400.617 123.774C386.77 123.803 373.231 127.865 361.654 135.466C369.383 121.667 381.53 110.872 396.139 104.818C410.748 98.7648 426.969 97.8053 442.189 102.095C457.41 106.384 470.744 115.672 480.045 128.463C489.346 141.255 494.072 156.805 493.461 172.609C493.001 183.742 489.898 194.606 484.408 204.301C478.918 213.997 471.199 222.246 461.89 228.366C467.777 217.876 470.859 206.044 470.837 194.014" fill="#FEFEFF"/>
</g>
</g>
<defs>
<clipPath id="clip0_45_2">
<rect width="707" height="213" fill="white" transform="translate(346 68)"/>
</clipPath>
</defs>
</svg>
